PathFileType	4	(X/Y/Z)	C:/Users/opensim2020/Desktop/walking_exp_matlab/subject01_walking08_straight_02.trc																																																																																																																															
DataRate	CameraRate	NumFrames	NumMarkers	Units	OrigDataRate	OrigDataStartFrame	OrigNumFrames																																																																																																																											
100	100	4	43	mm	100	2079	311																																																																																																																											
Frame#	Time	LFHD			RFHD			LBHD			RBHD			C7			T10			CLAV			STRN			RBAK			LSHO			LUPA			LELB			LFRM			LWRA			LWRB			LFIN			RSHO			RUPA			RELB			RFRM			RWRA			RWRB			RFIN			LASI			RASI			LPSI			RPSI			LTHI			LKNE			LTIB			LANK			LHEE			LTOE			RTHI			RKNE			RTIB			RANK			RHEE			RTOE			*39			*40			*41			*42		
		X1	Y1	Z1	X2	Y2	Z2	X3	Y3	Z3	X4	Y4	Z4	X5	Y5	Z5	X6	Y6	Z6	X7	Y7	Z7	X8	Y8	Z8	X9	Y9	Z9	X10	Y10	Z10	X11	Y11	Z11	X12	Y12	Z12	X13	Y13	Z13	X14	Y14	Z14	X15	Y15	Z15	X16	Y16	Z16	X17	Y17	Z17	X18	Y18	Z18	X19	Y19	Z19	X20	Y20	Z20	X21	Y21	Z21	X22	Y22	Z22	X23	Y23	Z23	X24	Y24	Z24	X25	Y25	Z25	X26	Y26	Z26	X27	Y27	Z27	X28	Y28	Z28	X29	Y29	Z29	X30	Y30	Z30	X31	Y31	Z31	X32	Y32	Z32	X33	Y33	Z33	X34	Y34	Z34	X35	Y35	Z35	X36	Y36	Z36	X37	Y37	Z37	X38	Y38	Z38	X39	Y39	Z39	X40	Y40	Z40	X41	Y41	Z41	X42	Y42	Z42	X43	Y43	Z43
																																																																																																																																		
273	2.72	565.82092	1661.53552	-1513.18005	583.76642	1671.7157	-1400.59607	454.14816	1607.16699	-1499.18799	469.93573	1616.80054	-1379.06006	429.72321	1422.02307	-1453.06128	395.03476	1129.20435	-1430.02942	572.41437	1352.2782	-1448.72058	616.01019	1197.48096	-1446.97278	375.43979	1229.47888	-1367.55017	515.56396	1378.57593	-1612.45764	471.92654	1191.47168	-1686.32361	442.31238	1044.58838	-1674.22424	460.00702	933.48743	-1698.76196	520.76514	806.8443	-1683.6001	462.85022	810.82697	-1702.49658	497.26614	732.76886	-1712.08728	509.27756	1382.84973	-1298.33386	470.89755	1182.39417	-1186.97998	487.84955	1057.26941	-1177.20032	552.80634	953.54962	-1149.91443	665.88477	871.28918	-1175.83704	627.89172	857.57532	-1134.47949	689.54486	798.96124	-1138.05481	571.27008	927.2948	-1528.08545	561.35791	916.00024	-1310.91736	382.75757	935.27942	-1486.57239	379.22382	935.94171	-1342.38135	613.10687	615.44287	-1613.33667	640.92169	485.89166	-1600.22656	647.65656	301.00848	-1623.32581	704.33655	81.47282	-1588.40466	678.25214	35.00863	-1531.74255	852.0199	92.56998	-1600.91504	460.55533	586.77374	-1272.24133	439.53046	428.49048	-1302.05994	349.80222	276.10049	-1299.91406	271.41846	85.43176	-1348.71704	212.18224	56.82816	-1395.82129	402.7381	34.14414	-1357.58191	567.00458	1702.92419	-1423.69788	-1973.15942	1023.55243	3101.82275	-2012.54102	1021.95618	3140.70703	NaN	NaN	NaN
274	2.73	573.2392	1661.00354	-1515.00488	591.11047	1671.24451	-1402.42188	461.51193	1606.61633	-1501.04321	477.2923	1616.26611	-1380.84277	437.1037	1421.34875	-1454.81897	402.88785	1128.49316	-1431.80823	579.84534	1351.78235	-1450.25281	623.80255	1197.18823	-1448.36255	382.9451	1228.75928	-1369.29895	523.12079	1377.94116	-1614.12976	479.69186	1190.74329	-1687.82935	450.32822	1043.84204	-1675.66418	467.90536	932.76611	-1700.0614	528.43762	805.96674	-1684.77014	470.5072	810.12769	-1703.84753	504.67972	731.91895	-1713.27625	516.43793	1382.3717	-1299.94775	477.80878	1181.7937	-1188.78027	495.0206	1056.76685	-1178.84875	560.20685	953.13782	-1151.34229	673.28333	870.99487	-1177.11182	635.18933	857.26532	-1135.80505	696.93732	798.70056	-1139.23767	579.64368	926.70502	-1529.32947	569.07141	915.62598	-1312.16699	390.9848	934.729	-1488.38513	387.06705	935.92676	-1344.30078	621.46783	614.73206	-1613.34912	649.40125	485.31531	-1600.24988	655.76172	300.10938	-1623.49011	711.70496	80.48544	-1588.31689	685.0827	34.06681	-1531.84558	859.5119	91.37266	-1599.77844	466.77753	586.72559	-1272.96716	444.82697	428.35834	-1302.37061	353.18854	276.97766	-1299.96533	272.46042	87.00204	-1348.24622	212.62651	59.08171	-1395.26697	402.9053	34.31852	-1357.55701	574.33997	1702.48999	-1425.5459	-1973.09875	1023.40363	3101.92896	-2012.46313	1022.01685	3140.70972	NaN	NaN	NaN
275	2.74	580.61023	1660.44067	-1516.82275	598.34888	1670.77161	-1404.21753	468.88748	1606.04236	-1502.97302	484.52249	1615.7699	-1382.74573	444.55377	1420.79382	-1456.73047	410.8757	1127.75159	-1433.58887	587.38336	1351.39941	-1451.88452	631.63867	1196.81238	-1449.83875	390.55621	1228.06812	-1371.11328	530.73975	1377.34875	-1615.87634	487.60132	1189.97278	-1689.42627	458.52881	1043.14539	-1677.15515	476.03656	932.04626	-1701.51501	536.41626	805.22839	-1686.05188	478.45581	809.41882	-1705.23315	512.61041	731.12109	-1714.50891	523.91174	1382.07642	-1301.54944	484.78168	1181.32178	-1190.74426	502.18466	1056.29932	-1180.52979	567.30383	952.65289	-1152.88367	680.49475	870.58301	-1178.43323	642.35541	856.83032	-1137.16699	704.13275	798.29865	-1140.45642	588.15338	926.16516	-1530.65137	576.92902	915.24561	-1313.4751	399.39322	934.24591	-1490.22375	394.92728	936.0694	-1346.30042	630.05646	614.10309	-1613.4375	657.91089	484.73468	-1600.14612	663.33661	299.09369	-1623.58887	717.88654	79.21933	-1587.95435	690.56342	33.03115	-1531.83057	865.76135	89.00599	-1598.29248	473.40945	586.56158	-1273.91199	450.49432	428.13834	-1302.7334	356.90237	278.02008	-1300.1366	273.42584	89.0336	-1347.81299	213.29369	61.79993	-1394.76184	403.1098	34.01691	-1357.44324	581.58478	1702.0155	-1427.38562	-1973.17578	1023.55487	3101.87573	-2012.495	1022.00897	3140.65405	NaN	NaN	NaN
276	2.75	587.97229	1659.94165	-1518.68005	605.58038	1670.3396	-1406.04443	476.31738	1605.49316	-1504.95154	491.71921	1615.25085	-1384.78186	451.99277	1420.09082	-1458.68945	418.96356	1127.02124	-1435.38574	594.90851	1350.92505	-1453.57312	639.53546	1196.51599	-1451.41028	398.23798	1227.34119	-1372.97021	538.40961	1376.73914	-1617.68872	495.54684	1189.27429	-1691.17114	466.79224	1042.45569	-1678.82422	484.33844	931.32465	-1703.04529	544.68433	804.48065	-1687.40344	486.7561	808.7121	-1706.70264	520.86108	730.29028	-1715.75195	531.08783	1381.41016	-1303.49976	491.73285	1180.93884	-1192.69629	509.23703	1055.90295	-1182.3573	574.29651	952.24121	-1154.54895	687.46973	870.07422	-1179.76477	649.25989	856.36707	-1138.57556	710.91034	797.77161	-1141.69751	596.85663	925.72974	-1532.07434	585.00873	914.9353	-1314.87634	407.9697	933.79303	-1492.04333	403.28546	935.77289	-1348.06384	638.81604	613.43115	-1613.45117	666.46198	484.13492	-1599.96167	670.55353	297.93564	-1623.55591	722.91071	77.70451	-1587.46301	694.21582	31.98801	-1531.68335	871.15704	86.1833	-1596.04675	480.38565	586.38556	-1274.75549	456.58096	427.76038	-1303.16968	360.83609	279.07516	-1300.21643	274.78522	90.92867	-1347.34644	214.16016	64.58843	-1394.14978	403.41376	34.01941	-1357.20886	588.83044	1701.55103	-1429.24927	-1972.98621	1023.88159	3101.91797	-2012.44543	1021.92511	3140.65186	NaN	NaN	NaN
